<?xml version="1.0" encoding="UTF-8" standalone="no"?>
<!-- Created with Inkscape (http://www.inkscape.org/) -->

<svg
   xmlns:dc="http://purl.org/dc/elements/1.1/"
   xmlns:cc="http://creativecommons.org/ns#"
   xmlns:rdf="http://www.w3.org/1999/02/22-rdf-syntax-ns#"
   xmlns:svg="http://www.w3.org/2000/svg"
   xmlns="http://www.w3.org/2000/svg"
   xmlns:sodipodi="http://sodipodi.sourceforge.net/DTD/sodipodi-0.dtd"
   xmlns:inkscape="http://www.inkscape.org/namespaces/inkscape"
   id="svg3050"
   version="1.1"
   inkscape:version="0.48.5 r10040"
   width="240"
   height="240"
   sodipodi:docname="vc_logo.svg">
  <metadata
     id="metadata3056">
    <rdf:RDF>
      <cc:Work
         rdf:about="">
        <dc:format>image/svg+xml</dc:format>
        <dc:type
           rdf:resource="http://purl.org/dc/dcmitype/StillImage" />
        <dc:title />
      </cc:Work>
    </rdf:RDF>
  </metadata>
  <defs
     id="defs3054" />
  <sodipodi:namedview
     pagecolor="#ffffff"
     bordercolor="#666666"
     borderopacity="1"
     objecttolerance="10"
     gridtolerance="10"
     guidetolerance="10"
     inkscape:pageopacity="0"
     inkscape:pageshadow="2"
     inkscape:window-width="1600"
     inkscape:window-height="877"
     id="namedview3052"
     showgrid="false"
     inkscape:zoom="1.6123401"
     inkscape:cx="23.743037"
     inkscape:cy="88.710636"
     inkscape:window-x="0"
     inkscape:window-y="0"
     inkscape:window-maximized="1"
     inkscape:current-layer="svg3050" />
  <g
     id="g2988"
     transform="matrix(0.91666666,0,0,0.91666666,10,10.000001)">
    <path
       transform="matrix(0.98714703,0,0,0.98714703,-91.22449,133.00751)"
       d="m 335.53714,-13.176872 c 0,67.137081 -54.42536,121.562442 -121.56244,121.562442 -67.13708,0 -121.562438,-54.425361 -121.562438,-121.562442 0,-67.137081 54.425358,-121.562438 121.562438,-121.562438 67.13708,0 121.56244,54.425357 121.56244,121.562438 z"
       sodipodi:ry="121.56244"
       sodipodi:rx="121.56244"
       sodipodi:cy="-13.176872"
       sodipodi:cx="213.9747"
       id="path2987"
       style="fill:#ffffff;fill-opacity:1;stroke:none"
       sodipodi:type="arc" />
    <path
       sodipodi:nodetypes="ccccsssssssssscc"
       style="fill:#000000"
       d="m 61.283712,204.86078 c 40.407178,28.82845 20.203591,14.41422 0,0 z m 39.238698,-102.7607 2.27016,-83.569671 c 3.02547,0.228254 6.5422,1.568792 12.66034,4.180812 11.22116,4.790656 14.06951,7.025804 14.06951,11.040556 0,3.971013 -2.15219,4.583905 -8.46715,2.411241 -3.17213,-1.091372 -6.16471,-1.738828 -6.65018,-1.438791 -0.48547,0.300037 -0.88267,11.318964 -0.88267,24.486504 0,19.943181 0.23562,23.940984 1.41102,23.940984 0.77605,0 3.96434,-0.977105 7.08508,-2.171343 4.81142,-1.841226 5.81868,-1.955252 6.62524,-0.75 0.80921,1.209196 0.55872,7.636699 -0.32858,8.431342 -0.16102,0.144207 -5.80526,3.016919 -12.54276,6.383806 -6.73751,3.366886 -12.25001,6.56814 -12.25001,7.1139 z"
       id="path3088-5-8"
       inkscape:connector-curvature="0" />
    <path
       sodipodi:nodetypes="cccsssssssscscc"
       style="fill:#001ccf;fill-opacity:1"
       d="m 60.663495,204.86078 c 40.407175,28.82845 20.20359,14.41422 0,0 z m 39.23869,-102.7607 c 0,-0.49924 -1.7176,-1.78397 -3.81689,-2.854953 -2.0993,-1.07098 -4.28371,-2.542626 -4.85426,-3.270324 -1.59423,-2.033345 -24.32885,-60.092014 -24.32885,-62.129943 0,-1.10327 1.33664,-2.35368 3.46788,-3.244172 4.56833,-1.908766 6.47488,-1.828477 7.14829,0.301027 0.712,2.251558 3.27437,8.90153 4.91283,12.75 0.70248,1.65 1.76118,4.2375 2.35268,5.75 2.29558,5.869983 3.11832,2.755014 3.11832,-11.80623 l 0,-14.556232 4.5574,-2.015955 c 4.1531,-1.837113 6.68731,-2.721143 9.712765,-2.492889 z"
       id="path3088-5-8-0"
       inkscape:connector-curvature="0" />
    <path
       sodipodi:nodetypes="csssccssssscccccssscsssscssssscssssscsccsssssssssssss"
       style="fill:#000000"
       d="m 29.524334,150.01667 c 0.953537,-5.87213 2.599628,-10.90371 5.422932,-16.5762 2.229594,-4.47963 4.053807,-8.68297 4.053807,-9.34077 0,-0.6578 1.77414,-4.72458 3.942533,-9.03731 4.644361,-9.23718 3.0025,-8.60436 26.335676,-10.15048 18.500704,-1.32875 30.574709,-1.98612 44.172578,-1.96382 20.5445,0 23.73132,0.8507 30.54922,8.1549 3.025,3.24077 7.81983,7.34418 10.65517,9.11871 2.83535,1.77452 7.11035,4.62725 9.5,6.3394 6.13103,4.39279 8.39671,4.93323 10.48022,2.49987 1.39542,-1.62973 2.09355,-1.79506 3.78767,-0.89699 4.12558,2.18702 29.45271,22.018 30.02501,23.50939 l 4.17,8.81995 -9.7561,4.62926 z m 122.566496,-8.23626 c 0.63806,-1.19224 1.21639,-4.43635 1.28518,-7.20915 0.12359,-4.98173 0.0658,-5.08116 -4.87493,-8.39366 -7.91857,-5.30895 -26.84237,-14.29137 -30.06472,-14.27058 -1.6144,0.0104 -6.08528,0.0367 -9.93528,0.0585 -8.28766,0.0468 -10.100068,0.49796 -10.955346,2.72678 -0.352056,0.91745 -0.908964,6.68499 -1.237574,12.81675 -0.56202,10.48714 -0.470184,11.27595 1.547721,13.29386 2.462679,2.46268 6.876479,2.79338 9.702499,0.72695 1.06675,-0.78003 1.71526,-1.56753 1.44113,-1.75 -0.27414,-0.18247 -1.39843,-0.83216 -2.49843,-1.44376 -1.31513,-0.7312 -2.05933,-2.27217 -2.17326,-4.5 -0.0953,-1.8634 -0.49076,-5.291 -0.87884,-7.6169 -0.74281,-4.45203 1.25317,-9.27111 3.83996,-9.27111 0.68297,0 2.88443,-0.88042 4.89214,-1.95649 l 3.65038,-1.95649 3.48778,4.25637 c 1.91827,2.34101 4.16519,5.87767 4.99314,7.85925 1.43062,3.42394 1.38577,3.7789 -0.90296,7.14707 -1.32459,1.94931 -2.40834,3.78701 -2.40834,4.08379 0,0.29678 1.6875,2.10847 3.75,4.02599 l 3.75,3.4864 11.21482,0.0271 c 10.49463,0.0253 11.28931,-0.11214 12.37493,-2.14063 z m -71.841862,-5.73646 c 2.922031,-1.11095 4.51154,-5.94821 5.397134,-16.42478 0.632441,-7.48177 0.605746,-7.5997 -1.987857,-8.78142 -3.397886,-1.54818 -25.21107,0.31117 -29.466454,2.51172 -3.133435,1.62036 -5.58542,5.95859 -6.555602,11.59863 -0.780687,4.53843 0.210658,5.94476 4.968596,7.04846 8.116313,1.88275 10.770598,0.41024 6.396288,-3.54846 -6.338808,-5.73654 2.664518,-14.14976 10.580299,-9.88682 3.184043,1.71472 3.339852,2.04501 2.760581,5.85205 -0.337656,2.21912 -1.039664,4.57568 -1.560018,5.23678 -1.62328,2.06237 0.180444,5.22577 3.532677,6.19567 1.752553,0.50707 3.269666,0.96253 3.371361,1.01213 0.101696,0.0496 1.255043,-0.31668 2.562995,-0.81396 z"
       id="path3088"
       inkscape:connector-curvature="0" />
    <path
       sodipodi:nodetypes="ccscsssssssssssccsssssscsssscsacscscscssscssssssccsssssssss"
       style="fill:#001cd0;fill-opacity:1"
       d="m 166.64751,163.71771 c -9.63751,4.86343 -14.19845,6.48388 -16.64675,16.16354 -0.008,0.825 -0.5017,3.25165 -1.09613,5.39256 l -1.08079,3.89256 -29.66364,-0.69246 c -16.315,-0.38085 -31.191048,-1.01622 -33.057888,-1.41193 -3.00235,-0.6364 -3.52706,-1.24251 -4.54449,-5.24954 -2.88479,-11.36149 -12.1874,-19.04876 -24.84882,-20.53399 -10.23385,-1.20046 -19.06559,3.59505 -22.84078,12.40222 -2.01925,4.71073 -3.61301,5.02954 -5.60691,1.12161 -1.50695,-2.95353 -1.56179,-7.11166 -0.16382,-12.42103 0.57927,-2.2 1.66932,-7.79414 2.42234,-12.43143 0.95354,-5.87213 2.59963,-10.90371 5.42293,-16.5762 2.22959,-4.47963 4.05381,-8.68297 4.05381,-9.34077 0,-0.6578 1.77414,-4.72458 3.94253,-9.03731 4.64436,-9.23717 3.0025,-8.60435 26.33568,-10.15048 18.5007,-1.32874 30.57471,-1.98612 44.172568,-1.96381 20.5445,0 23.73132,0.8507 30.54922,8.15489 3.025,3.24077 7.81983,7.34418 10.65517,9.11871 2.83535,1.77452 7.11035,4.62725 9.5,6.3394 6.13103,4.39279 8.39671,4.93323 10.48022,2.49987 1.39542,-1.62973 2.09355,-1.79506 3.78767,-0.89699 4.12558,2.18702 29.45271,22.018 30.02501,23.50939 0.32254,0.84053 0.0784,2.14035 -0.54248,2.88849 -1.27506,1.53635 -0.40563,6.38624 1.14485,6.38624 0.55678,0 1.29558,-0.73813 1.64177,-1.6403 0.56868,-1.48194 0.75873,-1.46349 1.96862,0.19113 1.73824,2.37719 1.65544,8.27194 -0.16083,11.44917 -0.78602,1.375 -1.44508,3.9625 -1.46456,5.75 0.38266,6.87707 -12.14834,8.48465 -14.16403,6.02034 0,0 -3.28397,-9.16806 -6.41921,-12.7456 -2.40612,-2.74557 -9.05058,-6.16723 -9.05058,-6.16723 M 87.443782,149.79584 c -0.32197,-0.52097 -1.01166,-0.68378 -1.53262,-0.3618 -0.52097,0.32197 -0.68378,1.01165 -0.36181,1.53262 0.32198,0.52097 1.01166,0.68378 1.53263,0.3618 0.52097,-0.32197 0.68378,-1.01165 0.3618,-1.53262 z m 64.642538,-8.08228 c 0.63806,-1.19224 1.21639,-4.43635 1.28518,-7.20915 0.12359,-4.98173 0.0658,-5.08116 -4.87493,-8.39366 -7.91857,-5.30895 -26.84237,-14.29137 -30.06472,-14.27058 -1.6144,0.0104 -6.08528,0.0367 -9.93528,0.0585 -8.28766,0.0468 -10.100058,0.49796 -10.955338,2.72678 -0.35206,0.91745 -0.90897,6.68499 -1.23758,12.81675 -0.56202,10.48714 -0.47018,11.27595 1.54773,13.29386 2.462668,2.46268 9.549648,1.67883 12.772408,2.04263 6.9809,0.78804 10.89188,0.2604 17.87278,1.04844 3.71469,0.41933 11.21482,0.0271 11.21482,0.0271 10.49463,0.0253 11.28931,-0.11214 12.37493,-2.14063 z M 80.244462,135.9771 c 2.92203,-1.11095 4.51154,-5.94821 5.39714,-16.42478 0.63244,-7.48177 0.60574,-7.5997 -1.98786,-8.78142 -3.39789,-1.54818 -25.21107,0.31117 -29.46645,2.51172 -3.13344,1.62036 -5.58542,5.95859 -6.55561,11.59863 -0.78068,4.53843 0.3509,5.45693 4.9686,7.04846 17.60766,6.06863 7.77412,3.63134 21.70983,3.84922 1.82421,0.0285 3.26966,0.96253 3.37136,1.01213 0.10169,0.0496 1.25504,-0.31668 2.56299,-0.81396 z"
       id="path3088-0"
       inkscape:connector-curvature="0" />
    <path
       transform="translate(-5.9315291,-7.3664753)"
       d="m 79.07761,190.71931 c 0,10.53299 -8.538673,19.07166 -19.071659,19.07166 -10.532987,0 -19.071659,-8.53867 -19.071659,-19.07166 0,-10.53298 8.538672,-19.07165 19.071659,-19.07165 10.532986,0 19.071659,8.53867 19.071659,19.07165 z"
       sodipodi:ry="19.071659"
       sodipodi:rx="19.071659"
       sodipodi:cy="190.71931"
       sodipodi:cx="60.005951"
       id="path3177"
       style="fill:#000000;fill-opacity:1;stroke:#000000;stroke-width:3.54330707;stroke-linecap:round;stroke-linejoin:round;stroke-miterlimit:4;stroke-opacity:1;stroke-dasharray:none;stroke-dashoffset:0"
       sodipodi:type="arc" />
    <path
       transform="translate(112.68489,-5.0406623)"
       d="m 79.07761,190.71931 c 0,10.53299 -8.538673,19.07166 -19.071659,19.07166 -10.532987,0 -19.071659,-8.53867 -19.071659,-19.07166 0,-10.53298 8.538672,-19.07165 19.071659,-19.07165 10.532986,0 19.071659,8.53867 19.071659,19.07165 z"
       sodipodi:ry="19.071659"
       sodipodi:rx="19.071659"
       sodipodi:cy="190.71931"
       sodipodi:cx="60.005951"
       id="path3177-6"
       style="fill:#000000;fill-opacity:1;stroke:#000000;stroke-width:3.54330707;stroke-linecap:round;stroke-linejoin:round;stroke-miterlimit:4;stroke-opacity:1;stroke-dasharray:none;stroke-dashoffset:0"
       sodipodi:type="arc" />
  </g>
</svg>
